<?xml version="1.0" encoding="utf-8"?>
<!-- Generator: Adobe Illustrator 27.5.0, SVG Export Plug-In . SVG Version: 6.00 Build 0)  -->
<svg version="1.1" id="Ebene_1" xmlns="http://www.w3.org/2000/svg" xmlns:xlink="http://www.w3.org/1999/xlink" x="0px" y="0px"
	 viewBox="-5 93 1931 892" xml:space="preserve">
<style type="text/css">
	.st0{fill:#F19069;}
	.st1{fill:#F6F5F2;}
</style>
<g>
	<g>
		<path class="st0" d="M1913.35,742.88c-3.48,203.94-306.84,203.91-310.29-0.01C1606.54,538.94,1909.89,538.97,1913.35,742.88z"/>
	</g>
	<path class="st1" d="M507.94,636.76v317.86H291.85V639.27L6.65,125.42h238.71l154.53,288.96l154.53-288.96h237.45L507.94,636.76z"
		/>
	<path class="st1" d="M681.31,673.19c49,65.33,100.51,106.79,184.68,106.79c56.54,0,85.43-20.1,85.43-60.3
		c0-36.43-18.85-47.74-84.18-76.64l-85.43-37.69c-136.94-60.31-209.81-138.2-209.81-250.02c0-146.99,120.61-244.99,290.22-244.99
		c136.94,0,233.68,65.33,283.94,167.1L1001.69,388c-40.2-60.31-77.89-87.95-136.94-87.95c-45.23,0-74.13,17.59-74.13,52.77
		c0,30.15,17.59,46.49,71.61,67.84l95.48,40.2c144.48,60.31,212.32,133.17,212.32,250.01c0,160.81-131.92,258.81-304.04,258.81
		c-149.51,0-270.12-71.61-330.42-185.94L681.31,673.19z"/>
	<path class="st1" d="M1430.1,110.35c165.84,0,304.04,81.66,379.42,222.38l-164.58,111.82c-54.02-90.46-125.64-135.69-216.09-135.69
		c-131.92,0-226.14,92.97-226.14,232.43c0,69.1,21.36,124.38,62.82,167.1c42.72,41.46,96.74,62.82,163.33,62.82
		c90.46,0,162.07-45.23,216.09-135.69l164.58,111.82c-75.38,140.71-213.58,222.38-380.68,222.38
		c-243.73,3.77-452.29-189.71-447.26-429.67C977.81,302.57,1183.85,105.32,1430.1,110.35z"/>
</g>
</svg>
